<svg xmlns="http://www.w3.org/2000/svg" viewBox="0 0 350.93 429.73"><defs><style>.cls-1{fill:#3ac968;}</style></defs><g id="Capa_2" data-name="Capa 2"><g id="Capa_1-2" data-name="Capa 1"><path class="cls-1" d="M254.62,246.48c3.7,0,40.41.24,44.12,0,3.65.33,42.32.28,46,.2,4.7-.11,6.49-1.07,6.16-3a16.12,16.12,0,0,1-.31-2.39c-.12-8.56-.19-17.13-.34-25.69,0-2.19-1.69-2.88-6.95-2.87-5.64,0-46.22.14-51.87.22h0c-.57,0-1.16-.08-1.73-.06l-16-.35c-13.53.33-26.91,1.42-40.24,3-10.14,1.17-19.75,3.75-27.87,8.8-4.93,3-7.69,7-7.7,12.12q-.14,94.28-.38,188.54c0,.75.06,1.51,0,2.26-.14,1.68.72,2.57,3,2.51,1.17,0,2.34,0,3.51,0l42.08-.3c2.69,0,4.06-.61,3.83-2.83a30.47,30.47,0,0,1,0-3.17l.09-68.89c0-1.36.07-23.72.06-25.07,0-1.69,1-2.42,3.21-2.44,3.71,0,40.42.45,44.13,0,3.65.62,42.31.53,46,.37,4.7-.2,6.49-2,6.16-5.6-.14-1.5-.3-3-.31-4.5-.12-16.09-.19-11.18-.34-27.27,0-4.12-36.63-5.42-41.89-5.39-5.65,0-44.28.26-49.93.41h0a16.76,16.76,0,0,0-1.74-.12c-6.23.32-5.72-.31-5.79-4.46-.15-9-.16-18.08-.26-27.13a9.62,9.62,0,0,1,1.64-6.15C251.36,246.59,254.62,246.48,254.62,246.48Z"/><path class="cls-1" d="M246.26,90.13a2,2,0,0,0,2.89.48c5-3,10.08-5.9,15.16-8.78,1.31-.73,1.33-1.46.62-2.65-2-3.27-3.85-6.59-5.78-9.89C255.51,63,251.85,56.77,247.89,50c-6.37,6.37-12.37,12.38-18.4,18.36-.91.91-1.25,1.68-.24,2.8Q237.8,80.59,246.26,90.13Z"/><path class="cls-1" d="M276.4,73.77a163.22,163.22,0,0,1,17.4-9.67C296,63,296.14,62.55,295,60.38c-1.69-3.14-3.5-6.22-5.3-9.29-2.11-3.61-4.27-7.19-6.4-10.79-.67-1.14-1.31-1.84-2.92-1.33-7.48,2.4-15,4.64-23.16,7.13,5.71,9.39,11.15,18.29,16.54,27.23C274.53,74.67,275.32,74.47,276.4,73.77Z"/><path class="cls-1" d="M173.41,94.54q-12.28,12.24-24.52,24.52a3.77,3.77,0,0,0-1.52,2.56l12.8,6.63a.34.34,0,0,0,.34.22l.68.34.83.47a.83.83,0,0,0,.55.27l1,.55a.49.49,0,0,0,.42.18c5.46,3,10.95,6,17.09,8.85-.15-1.88-.26-3.19-.36-4.51a5.93,5.93,0,0,0,0-.73q-1.78-19.08-3.58-38.16c-.09-1,0-2.17-1-2.61C174.83,92.55,174.15,93.8,173.41,94.54Z"/><path class="cls-1" d="M304.14,57.91c.64-.38,1.29-.73,1.92-1.1l20.87-12.16c1.91-1.12,3.83-2.23,5.72-3.37.64-.39,1.31-.89,1.05-1.75A2.06,2.06,0,0,0,332.19,38a12.28,12.28,0,0,0-2.19-.16q-18.27-.29-36.52-.54c-1.05,0-2.19-.34-3.52.69q6.15,9.8,12.3,19.55C302.75,58.37,303.41,58.35,304.14,57.91Z"/><path class="cls-1" d="M83.51,51.17c-2.9,3-5.83,6-8.87,8.88-1.3,1.23-1,2.21-.26,3.53,3.12,5.3,6.17,10.65,9.24,16a2.81,2.81,0,0,0,1.84,1.64c4.64-4.63,9.39-9.42,14.2-14.15,1.22-1.21.38-1.91-.43-2.72-4.35-4.35-8.7-8.68-13-13.07C85.26,50.29,84.56,50.08,83.51,51.17Z"/><path class="cls-1" d="M107.92,58.73c3.77-3.86,7.61-7.66,11.44-11.48.73-.73.87-1.31,0-2.14-4.55-4.48-9.05-9-13.56-13.52a2.21,2.21,0,0,0-1.59-.9,5.75,5.75,0,0,0-.84.61C99.58,35.12,95.79,39,91.93,42.75c-1.15,1.13-.54,1.88.31,2.74,4.33,4.35,8.66,8.7,13,13.1C106.13,59.54,106.85,59.82,107.92,58.73Z"/><path class="cls-1" d="M213.22,97.59c3.64,2.27,7.2,4.68,10.79,7,.51.33,1.05.62,1.55.92a6.27,6.27,0,0,0,1.11-.37c4.32-2.57,8.66-5.12,12.92-7.77,1.61-1,1.66-1.71.18-3.22Q232,86.29,224.19,78.52c-1.51-1.49-1.8-1.42-3,.54-3,5.08-5.85,10.22-8.86,15.28C211.46,95.87,211.79,96.69,213.22,97.59Z"/><path class="cls-1" d="M124.51,38.84c1.2,1.24,2,1.38,3.28.06,4.09-4.24,8.3-8.37,12.46-12.55a3.56,3.56,0,0,0,1.24-1.86c0-1.22-1.1-1.42-2-1.79-5.77-2.41-11.57-4.75-17.3-7.26a2.93,2.93,0,0,0-3.86.83c-2.08,2.26-4.26,4.43-6.5,6.52-1.26,1.16-1.41,2-.09,3.27C116.09,30.25,120.32,34.52,124.51,38.84Z"/><path class="cls-1" d="M147.93,76.21c-3.26,3.35-6.58,6.64-9.92,9.91-1.06,1-1.33,1.89-.14,3.06,4.83,4.71,9.6,9.48,14.55,14.38,4-3.9,8-7.75,11.93-11.57,1.11-1.06.3-1.7-.41-2.41-4.44-4.42-8.89-8.83-13.3-13.29C149.67,75.3,149,75.15,147.93,76.21Z"/><path class="cls-1" d="M121.19,107c5.4,3.18,10.86,6.24,16.26,9.42,1.22.72,2.11.91,3.2-.27,2.39-2.63,4.92-5.15,7.37-7.73a8.2,8.2,0,0,0,.82-1.25,15,15,0,0,0-1-1.19c-4.52-4.53-9.07-9-13.55-13.57-1.06-1.08-1.77-.86-2.72.1-3.62,3.68-7.32,7.28-10.93,11C118.86,105.32,118.91,105.65,121.19,107Z"/><path class="cls-1" d="M123.82,88.15q4.79-4.86,9.64-9.66c.83-.82.56-1.47-.15-2.17-4.7-4.68-9.38-9.36-14.26-14.24-3.67,3.67-7.12,7.15-10.61,10.58-1,1-.58,1.65.2,2.44q6.38,6.41,12.72,12.84C122.15,88.74,122.85,89.13,123.82,88.15Z"/><path class="cls-1" d="M155,72.63c3.65,3.67,7.27,7.35,10.9,11s3.74,3.77,7.5-.12c.75-.77,1.81-1.36,1.78-2.66,0-.12-.06-.24-.1-.36-2-7.36-3.89-14.74-6-22.07-.48-1.71-1.4-1.88-2.71-.6-4,3.86-7.83,7.83-11.78,11.72C153.39,70.82,154.09,71.68,155,72.63Z"/><path class="cls-1" d="M136.37,46.64c-.86-.86-1.51-.37-2.17.3-2.94,3-5.88,5.93-8.87,8.85-.93.9-.81,1.6,0,2.46q6.35,6.41,12.65,12.87c.94,1,1.68,1.2,2.73.11,2.91-3,5.9-5.92,8.84-8.88a11.47,11.47,0,0,0,.89-1.16,4.4,4.4,0,0,0-.57-1C145.41,55.66,140.89,51.16,136.37,46.64Z"/><path class="cls-1" d="M91.92,91.78a49.38,49.38,0,0,0,15.92,9.8,2.73,2.73,0,0,0,3.29-.72c1.6-1.71,3.27-3.35,5-5,.85-.82,1.06-1.51.11-2.45-4.72-4.65-9.39-9.34-14.28-14.22-3.52,3.52-6.8,6.83-10.11,10.11C90.87,90.25,91,91,91.92,91.78Z"/><path class="cls-1" d="M155.44,54.33c1,1,1.68.56,2.45-.24,1.54-1.59,3.14-3.13,4.69-4.7,2.4-2.43,2.46-2.59.73-5.69-2.72-4.92-6.62-8.83-10.9-12.4-.37-.31-.79-.55-1.22-.85a4.78,4.78,0,0,0-1,.53c-2.71,2.69-5.4,5.39-8.1,8.08-.68.68-.51,1.29.09,1.9C146.61,45.41,151.05,49.86,155.44,54.33Z"/><path class="cls-1" d="M200.29,132.43c.78.59,1.36,0,1.88-.52q6.45-6.55,12.89-13.13c1.87-1.92,3.72-3.87,5.92-6.16l-12.75-8L202,124.4c-.66,2.1-1.31,4.21-1.93,6.32C199.87,131.3,199.73,132,200.29,132.43Z"/><path class="cls-1" d="M55.36,7.82c.15.84.24,1.7.46,2.53Q61,29.75,66.19,49.13c1,3.82,1.33,3.87,4.27.93q18.65-18.64,37.27-37.3c.59-.58,1.44-1,1.41-2.48C101.89,8.6,94.46,7.3,87,6a10.88,10.88,0,0,0-4.65-.8,6.21,6.21,0,0,0-3.7-.73,6.59,6.59,0,0,0-3.73-.72h0C68.82,2.06,62.52,1.24,56.3.06A5.76,5.76,0,0,0,55.2,0C54,0,53.32.63,53.62,1.85A24.92,24.92,0,0,0,55.36,7.82Z"/><path class="cls-1" d="M207.75,173.37c10.13-7.57,21-14,31.69-20.66A85.93,85.93,0,0,1,248,148a108.35,108.35,0,0,1,31.34-9.52c21.62-3.16,42,.26,60.73,11.81,3.24,2,6.55,3.91,10.53,6.28-4.08-5.38-10.95-12.18-14.67-14.14-13.31-7-27.33-12-42.41-13.23a109,109,0,0,0-51.71,8.21c-16.84,7-33.23,15-49.53,23.19-1.21.61-2.37,1.31-3.56,2a2.52,2.52,0,0,1-3-.18A160.86,160.86,0,0,0,160.77,148c-18.89-8.85-38.61-13.19-59.56-11.07a128.11,128.11,0,0,0-63.8,24.36c-12.94,9.47-22.6,21.57-28.06,36.77a159,159,0,0,0-8,35.63,198.38,198.38,0,0,0,.28,48.15l-1,7Q.45,344.16.46,399.46c0,7,.12,13.91,0,20.86,0,2.2.4,3.29,3,3.28,19.49-.07,39,0,58.48,0,2.93,0,2.94-.19,2.93-3.16q-.22-44.42-.39-88.84c0-1.42-.28-2.92.6-4.64,1.79,1.33,2.44,3,3.31,4.53Q85.14,360,101.82,388.55c5.81,9.9,12,19.6,17.4,29.71,2.12,4,4.44,5.19,8.74,5.16,24.93-.18,27.86-.09,52.79-.08.91,0,1.82,0,2.72,0,1.71.08,2.54-.66,2.45-2.41,0-.9,0-1.81,0-2.72q0-28.56,0-57.12l0-132.83c0-5.38.53-5-5.22-5-17.53,0-13.06,0-30.59,0-1.21,0-2.42.07-3.63,0-1.81-.1-2.8.47-2.84,2.5-.06,3.32-.48,6.63-.47,9.94.09,24.48-.14,49,.42,73.44,0,1.47.38,3.07-1.37,4.22a16.19,16.19,0,0,0-5.42-2.73c-2.54-.9-5.59-1.68-7.34-3.17-6-5.14-13.56-8.1-19.11-14-4.63-4.93-10-9.22-14.62-14.2-14.28-15.38-26-32.37-32.55-52.53-.91-2.82-2.45-3.23-5-3.21-15.92.11-31.84,0-47.75.2.05-.52.1-1.05.16-1.58A77.08,77.08,0,0,1,27,182.68C40.65,165.34,59.29,155.56,80.27,151c25-5.45,48.6.64,70.85,12.58,8.8,4.73,17,10.35,25.33,15.91,5.45,3.65,11.1,4.19,17.26,2.86a16.59,16.59,0,0,0,8.12-4.1A69.63,69.63,0,0,1,207.75,173.37Z"/></g></g></svg>